<svg xmlns="http://www.w3.org/2000/svg" version="1.0" viewBox="0 0 525 507"><path d="M2 46.3v42.2L111.3 148c217.6 118.4 295.2 161.5 296.4 164.7.9 2.2-22.4 35.9-29.5 42.6l-3 2.8-8.1-4c-10.6-5.4-69.5-36.7-147.6-78.6C-4.8 155.2 5 160.4 3.9 162.1c-1 1.6-1.2 57.3-.3 63l.6 3.6 93.7 50.4c155 83.3 258.7 138.4 281.6 149.6l9 4.4 2.8-3.3c23.8-27.5 107.3-137.7 105.6-139.2-3.6-3.1-99.3-55.9-220.4-121.6C156.7 104 89 66.4 89 65s20.7-2 68.5-1.9h49L363 148.9l156.5 85.9.6-8.7c.4-4.7.7-56.6.8-115.4L521 4h-65.7c-36.2 0-79.6.3-96.6.7l-30.7.6 5.7 3.2c3.2 1.8 18.9 10.5 34.8 19.4 54 30.2 62.9 34 83.6 35.6l8.6.7.6 12.6c.8 15.7.7 46.7-.2 50.7-.5 2.2-1.2 2.9-2.5 2.7-3.2-.6-42.3-21.6-158.7-85.3L225.2 4H2zm.7 252.4c-.4 5.8-.7 21.2-.7 34.2l.1 23.6L78.3 399c41.9 23.4 102.2 57 134.1 74.8l58.1 32.3.8-2.8c.4-1.5 1.1-16.8 1.4-33.8l.6-31.1-63.9-35.9C100.9 341.6 4.6 288 3.7 288c-.2 0-.7 4.8-1 10.7" data-index="0" style="opacity: 1;"></path></svg>